<svg width="400" height="646" viewBox="0 0 400 646" fill="none" xmlns="http://www.w3.org/2000/svg">
<g clip-path="url(#clip0_2941_5557)">
<rect width="400" height="646" rx="16" fill="white"/>
<path d="M425.113 651.699H306.032H171.655C185.438 545.612 264.109 473.237 398.788 506.233L425.113 514.364V651.699Z" fill="#F2F5FE"/>
<path d="M146.911 106.501C155.943 81.6009 167.605 57.3899 172.609 46.8814C182.58 25.943 195.41 10.6691 206.102 -4.53264C115.9 -12.8259 88.3599 -14.4976 73.3748 -14.4976L29.2216 -14.4975L-25.0183 -14.4975L-53.1743 6.05865C-51.2978 53.5944 -51.2978 123.934 -51.2978 140.37V140.37C-39.8274 156.564 -5.29457 176.426 49.3585 191.944C100.638 201.391 125.196 166.372 146.911 106.501Z" fill="#D9E4FF"/>
<path d="M-53.0193 5.97612C-53.0193 86.3624 -52.7334 80.111 -51.2528 140.541C48.5542 162.134 150.468 100.647 181.685 -6.88467C104.681 -14.4146 87.8754 -14.4146 58.8674 -14.4146H58.8668L-25.0329 -14.4148L-53.0193 5.97612Z" fill="#5E70E4"/>
</g>
<defs>
<clipPath id="clip0_2941_5557">
<rect width="400" height="646" rx="16" fill="white"/>
</clipPath>
</defs>
</svg>
