<svg width="40" height="40" viewBox="0 0 40 40" fill="none" xmlns="http://www.w3.org/2000/svg">
<mask id="mask0_3707_5551" style="mask-type:alpha" maskUnits="userSpaceOnUse" x="0" y="0" width="40" height="40">
<path d="M0 10C0 4.47715 4.47715 0 10 0H30C35.5228 0 40 4.47715 40 10V30C40 35.5228 35.5228 40 30 40H10C4.47715 40 0 35.5228 0 30V10Z" fill="#D9D9D9"/>
</mask>
<g mask="url(#mask0_3707_5551)">
<path d="M0 3.85542C0 1.72613 1.72613 0 3.85542 0H36.1446C38.2739 0 40 1.72613 40 3.85542V36.1446C40 38.2739 38.2739 40 36.1446 40H3.85542C1.72613 40 0 38.2739 0 36.1446V3.85542Z" fill="url(#paint0_linear_3707_5551)"/>
<path d="M30.3851 19.9048C30.3851 25.6562 25.7226 30.3187 19.9711 30.3187C14.2197 30.3187 9.55721 25.6562 9.55721 19.9048C9.55721 14.1533 14.2197 9.49083 19.9711 9.49083C25.7226 9.49083 30.3851 14.1533 30.3851 19.9048Z" fill="white"/>
<path d="M2.57028 19.1928C3.8702 18.9506 4.52016 18.2816 4.52016 17.1856C4.52016 16.7013 4.45644 15.8729 4.329 14.7004C4.20155 13.4515 4.13783 12.5466 4.13783 11.9859C4.13783 11.0683 4.39272 10.3673 4.90249 9.88306C5.42501 9.39878 6.11957 9.15663 6.98618 9.15663C6.98618 9.15663 7.70906 9.15662 8.09494 9.15663C8.68471 9.15666 8.68471 10.6668 8.09494 10.6668C7.78938 10.6668 7.31117 10.6668 7.31117 10.6668C6.81414 10.6668 6.44455 10.7815 6.20241 11.0109C5.96027 11.2276 5.8392 11.5908 5.8392 12.1006C5.8392 12.4702 5.86468 12.9289 5.91566 13.477C5.96664 14.0122 5.9985 14.3754 6.01124 14.5666C6.13869 15.79 6.20241 16.6822 6.20241 17.2429C6.20241 17.9183 6.03036 18.4855 5.68626 18.9443C5.35491 19.3903 4.83877 19.6898 4.13783 19.8427V19.881C4.83877 20.0339 5.35491 20.3398 5.68626 20.7986C6.03036 21.2574 6.20241 21.8245 6.20241 22.4999C6.20241 23.0607 6.13869 23.9528 6.01124 25.1762C5.9985 25.3674 5.96664 25.737 5.91566 26.285C5.86468 26.8202 5.8392 27.2727 5.8392 27.6423C5.8392 28.152 5.96027 28.5152 6.20241 28.7319C6.44455 28.9613 6.81414 29.076 7.31117 29.076C7.31117 29.076 7.78938 29.076 8.09494 29.076C8.68471 29.076 8.68471 30.5862 8.09494 30.5862C7.70906 30.5862 6.98618 30.5862 6.98618 30.5862C6.11957 30.5862 5.42501 30.344 4.90249 29.8598C4.39272 29.3755 4.13783 28.6745 4.13783 27.757C4.13783 27.1962 4.20155 26.2914 4.329 25.0424C4.45644 23.8699 4.52016 23.0416 4.52016 22.5573C4.52016 21.4613 3.8702 20.7922 2.57028 20.55C1.92771 20.4304 1.92771 19.3125 2.57028 19.1928Z" fill="white"/>
<path d="M37.4297 19.1928C36.1298 18.9506 35.4798 18.2816 35.4798 17.1856C35.4798 16.7013 35.5436 15.8729 35.671 14.7004C35.7984 13.4515 35.8622 12.5466 35.8622 11.9859C35.8622 11.0683 35.6073 10.3673 35.0975 9.88306C34.575 9.39878 33.8804 9.15663 33.0138 9.15663C33.0138 9.15663 32.2909 9.15662 31.9051 9.15663C31.3153 9.15666 31.3153 10.6668 31.9051 10.6668C32.2106 10.6668 32.6888 10.6668 32.6888 10.6668C33.1859 10.6668 33.5554 10.7815 33.7976 11.0109C34.0397 11.2276 34.1608 11.5908 34.1608 12.1006C34.1608 12.4702 34.1353 12.9289 34.0843 13.477C34.0334 14.0122 34.0015 14.3754 33.9888 14.5666C33.8613 15.79 33.7976 16.6822 33.7976 17.2429C33.7976 17.9183 33.9696 18.4855 34.3137 18.9443C34.6451 19.3903 35.1612 19.6898 35.8622 19.8427V19.881C35.1612 20.0339 34.6451 20.3398 34.3137 20.7986C33.9696 21.2574 33.7976 21.8245 33.7976 22.4999C33.7976 23.0607 33.8613 23.9528 33.9888 25.1762C34.0015 25.3674 34.0334 25.737 34.0843 26.285C34.1353 26.8202 34.1608 27.2727 34.1608 27.6423C34.1608 28.152 34.0397 28.5152 33.7976 28.7319C33.5554 28.9613 33.1859 29.076 32.6888 29.076C32.6888 29.076 32.2106 29.076 31.9051 29.076C31.3153 29.076 31.3153 30.5862 31.9051 30.5862C32.2909 30.5862 33.0138 30.5862 33.0138 30.5862C33.8804 30.5862 34.575 30.344 35.0975 29.8598C35.6073 29.3755 35.8622 28.6745 35.8622 27.757C35.8622 27.1962 35.7984 26.2914 35.671 25.0424C35.5436 23.8699 35.4798 23.0416 35.4798 22.5573C35.4798 21.4613 36.1298 20.7922 37.4297 20.55C38.0723 20.4304 38.0723 19.3125 37.4297 19.1928Z" fill="white"/>
<path d="M25.6301 17.113C26.031 17.2677 26.2099 17.3979 26.4312 17.9141C26.6919 18.5223 26.4536 19.6173 26.4326 19.7103C26.4316 19.715 26.4308 19.7188 26.4297 19.7235C26.4155 19.7852 26.2957 20.2525 25.8304 20.7179C25.3557 21.1927 24.8291 21.3187 24.2051 21.2374C23.594 21.1577 23.129 20.6842 23.0035 20.236C22.8868 19.8193 23.2342 19.2125 23.6275 18.9155C24.3924 18.3381 24.5058 17.8232 24.6288 17.5137C24.8198 17.0332 25.2123 16.9518 25.6301 17.113Z" fill="url(#paint1_linear_3707_5551)"/>
<path d="M21.6057 13.1849C22.0336 13.1459 22.2517 13.1833 22.6789 13.548C23.1821 13.9776 23.4539 15.0648 23.4763 15.1575C23.4774 15.1622 23.4784 15.1659 23.4795 15.1706C23.4941 15.2323 23.5939 15.7042 23.3831 16.3277C23.168 16.9636 22.7518 17.3101 22.1564 17.5137C21.5733 17.7131 20.9465 17.4948 20.6354 17.1487C20.3461 16.8269 20.3885 16.1289 20.6095 15.6884C21.0392 14.8317 20.9127 14.3199 20.8858 13.9879C20.844 13.4726 21.1598 13.2256 21.6057 13.1849Z" fill="url(#paint2_linear_3707_5551)"/>
<path d="M18.1997 13.2172C17.7706 13.1958 17.5542 13.2422 17.1425 13.6241C16.6573 14.0741 16.4306 15.1716 16.412 15.2651C16.411 15.2698 16.4102 15.2736 16.4093 15.2783C16.3972 15.3405 16.317 15.8162 16.5533 16.4304C16.7944 17.057 17.2245 17.386 17.8278 17.5649C18.4186 17.7401 19.0359 17.4962 19.3325 17.1376C19.6083 16.8042 19.5371 16.1085 19.2982 15.6775C18.8336 14.8393 18.9389 14.3226 18.9522 13.9898C18.9727 13.4733 18.647 13.2395 18.1997 13.2172Z" fill="url(#paint3_linear_3707_5551)"/>
<path d="M14.1752 17.1166C13.7743 17.2713 13.5954 17.4015 13.3741 17.9177C13.1134 18.5259 13.3517 19.6209 13.3726 19.7139C13.3737 19.7186 13.3745 19.7224 13.3756 19.7271C13.3898 19.7888 13.5095 20.2561 13.9749 20.7216C14.4495 21.1963 14.9762 21.3224 15.6002 21.241C16.2112 21.1613 16.6763 20.6878 16.8018 20.2396C16.9185 19.823 16.5711 19.2161 16.1778 18.9192C15.4129 18.3417 15.2994 17.8268 15.1764 17.5173C14.9855 17.0369 14.5929 16.9554 14.1752 17.1166Z" fill="url(#paint4_linear_3707_5551)"/>
<path d="M17.4001 21.241C17.5166 20.6015 17.793 20.2625 18.1997 20.0384C19.5558 19.2915 20.9899 19.6552 21.6043 20.0345C22.1761 20.3875 22.2109 20.6268 22.4068 21.2352C22.7292 22.2949 23.2094 22.6361 23.6102 22.8359C24.8125 23.4354 24.7862 23.9047 24.6138 24.8375C24.3851 26.075 22.8599 26.3819 22.0124 26.6429C21.165 26.9039 19.2361 26.9608 18.3249 26.8089C17.6572 26.6976 16.9812 26.5669 16.4045 26.2488C15.9216 25.9825 15.538 25.4054 15.4015 24.8481C15.2509 24.233 15.4345 23.6757 15.6002 23.446C15.9173 23.0066 16.2005 23.0448 16.6008 22.844C17.2179 22.5346 17.3449 21.4119 17.4001 21.241Z" fill="url(#paint5_linear_3707_5551)"/>
</g>
<defs>
<linearGradient id="paint0_linear_3707_5551" x1="0.883535" y1="1.60643" x2="38.7952" y2="40" gradientUnits="userSpaceOnUse">
<stop stop-color="#FF6AA0"/>
<stop offset="0.145" stop-color="#FF6AA0"/>
<stop offset="1" stop-color="#FDDAA6"/>
</linearGradient>
<linearGradient id="paint1_linear_3707_5551" x1="5.38153" y1="8.11245" x2="26.2651" y2="28.3534" gradientUnits="userSpaceOnUse">
<stop stop-color="#FF6AA0"/>
<stop offset="0.13" stop-color="#FF6AA0"/>
<stop offset="1" stop-color="#FDC7A2"/>
</linearGradient>
<linearGradient id="paint2_linear_3707_5551" x1="5.38153" y1="8.11245" x2="26.2651" y2="28.3534" gradientUnits="userSpaceOnUse">
<stop stop-color="#FF6AA0"/>
<stop offset="0.13" stop-color="#FF6AA0"/>
<stop offset="1" stop-color="#FDC7A2"/>
</linearGradient>
<linearGradient id="paint3_linear_3707_5551" x1="5.38153" y1="8.11245" x2="26.2651" y2="28.3534" gradientUnits="userSpaceOnUse">
<stop stop-color="#FF6AA0"/>
<stop offset="0.13" stop-color="#FF6AA0"/>
<stop offset="1" stop-color="#FDC7A2"/>
</linearGradient>
<linearGradient id="paint4_linear_3707_5551" x1="5.38153" y1="8.11245" x2="26.2651" y2="28.3534" gradientUnits="userSpaceOnUse">
<stop stop-color="#FF6AA0"/>
<stop offset="0.13" stop-color="#FF6AA0"/>
<stop offset="1" stop-color="#FDC7A2"/>
</linearGradient>
<linearGradient id="paint5_linear_3707_5551" x1="5.38153" y1="8.11245" x2="26.2651" y2="28.3534" gradientUnits="userSpaceOnUse">
<stop stop-color="#FF6AA0"/>
<stop offset="0.13" stop-color="#FF6AA0"/>
<stop offset="1" stop-color="#FDC7A2"/>
</linearGradient>
</defs>
</svg>
